<?xml version="1.0" standalone="no"?>
<!DOCTYPE svg PUBLIC "-//W3C//DTD SVG 20010904//EN"
 "http://www.w3.org/TR/2001/REC-SVG-20010904/DTD/svg10.dtd">
<svg version="1.0" xmlns="http://www.w3.org/2000/svg"
 width="330.000000pt" height="330.000000pt" viewBox="0 0 330.000000 330.000000"
 preserveAspectRatio="xMidYMid meet">
<metadata>
Created by potrace 1.14, written by Peter Selinger 2001-2017
</metadata>
<g transform="translate(0.000000,330.000000) scale(0.100000,-0.100000)"
fill="#000000" stroke="none">
<path d="M1750 3112 c-85 -76 -950 -843 -1312 -1162 -103 -91 -185 -166 -183
-169 4 -3 197 14 283 26 39 5 82 41 539 445 l498 440 20 -25 c11 -14 157 -176
324 -360 273 -302 306 -336 330 -332 14 3 100 12 191 20 91 9 181 18 200 21
l35 5 -119 -243 c-65 -134 -143 -299 -173 -368 -30 -69 -58 -129 -62 -133 -4
-4 -34 50 -66 120 -31 70 -109 235 -172 365 -130 266 -123 258 -234 258 -33 0
-97 11 -146 26 -166 48 -380 43 -537 -13 -185 -65 -314 -180 -401 -358 -77
-155 -106 -330 -86 -513 33 -289 167 -492 395 -602 219 -104 554 -97 795 17
83 39 83 38 79 414 -3 316 -3 319 -26 341 -22 23 -27 23 -285 26 -310 3 -302
6 -302 -87 0 -35 5 -65 13 -73 8 -8 67 -13 196 -16 l183 -4 7 -61 c3 -33 6
-131 6 -218 l0 -158 -31 -17 c-58 -30 -124 -45 -219 -51 -303 -18 -513 143
-581 445 -16 74 -13 269 6 348 56 230 216 389 427 424 147 25 336 -6 454 -75
40 -23 51 -43 228 -394 l186 -369 0 -291 0 -291 28 -11 c39 -15 161 -7 172 11
6 8 10 144 10 303 l0 287 230 460 c128 255 227 466 224 474 -3 8 -28 19 -57
24 -52 10 -52 10 -12 11 22 1 46 5 54 10 10 7 -86 120 -395 462 -466 518 -616
683 -624 686 -3 1 -43 -33 -90 -75z"/>
</g>
</svg>
